<?xml version="1.0" standalone="no"?><!DOCTYPE svg PUBLIC "-//W3C//DTD SVG 1.1//EN" "http://www.w3.org/Graphics/SVG/1.1/DTD/svg11.dtd"><svg t="1571915876430" class="icon" viewBox="0 0 1024 1024" version="1.1" xmlns="http://www.w3.org/2000/svg" p-id="2161" xmlns:xlink="http://www.w3.org/1999/xlink" width="200" height="200"><defs><style type="text/css"></style></defs><path d="M512 512m-512 0a512 512 0 1 0 1024 0 512 512 0 1 0-1024 0Z" fill="#F26D64" p-id="2162"></path><path d="M635.083 239.854c0-9.422 1.708-18.645 4.962-27.599l-237.354 33.282c-7.011 2.031-10.515 6.003-10.515 12.013v387.263c0 16.019-8.011 24.031-24.03 24.031h-60.073c-32.039 0-58.073 7.759-78.098 23.272-20.024 15.551-30.033 35.825-30.033 60.828 0 25.029 10.009 45.302 30.033 60.825 20.025 15.55 46.06 23.275 78.098 23.275 32.04 0 58.067-7.726 78.092-23.275 20.023-15.52 30.04-35.796 30.04-60.825V426.013c0-13.5 11.222-15.319 11.222-15.319l335.742-46.087c-77.579-27.919-128.086-73.391-128.086-124.753zM800.673 572.728c0 16.019-8.009 24.028-24.028 24.028H716.57c-32.037 0-58.072 7.758-78.098 23.275-20.021 15.549-30.033 35.824-30.033 60.824 0 25.032 10.013 45.309 30.033 60.825 20.025 15.553 46.061 23.283 78.098 23.283 32.041 0 58.068-7.73 78.094-23.283 20.021-15.517 30.036-35.793 30.036-60.825V381.792a495.18 495.18 0 0 1-24.027-5.625v196.561z" fill="#FFFFFF" p-id="2163"></path><path d="M820.195 191.256c-2.002-2-5.004-2.999-9.009-2.999l-171.142 23.998c-3.254 8.954-4.962 18.177-4.962 27.599 0 51.362 50.507 96.834 128.087 124.754l30.725-4.218s6.778-1.013 6.778 7.625v8.152a494.007 494.007 0 0 0 24.027 5.625v-181.52c0.001-3.978-1.495-6.978-4.504-9.016z" fill="#FFFFFF" opacity=".4" p-id="2164"></path></svg>